# xmcd
#
# Track frame offsets: 
#        150
#        29238
#        65643
#        97608
#        110118
#        122703
#        139218
#        172278
#        197778
#        233853
#        237003
#        239538
#        246363
#        255663
#        264018
#        271338
#        282918
#
# Disc length: 3815 seconds
#
# Revision: 6
# Processed by: cddbd v1.5.2PL0 Copyright (c) Steve Scherf et al.
# Submitted via: ExactAudioCopy v1.0b3
#
DISCID=020ee511
DTITLE=Frédéric Chopin - Polonaises op. 71, KK IIa, KK IVa – divers
DYEAR=2006
DGENRE=Romantique
TTITLE0=Polonaise en ré mineur op. 71 n° 1
TTITLE1=Polonaise en si bémol majeur op. 71 n° 2
TTITLE2=Polonaise en fa mineur op. 71 n° 3
TTITLE3=Polonaise KK II.a n° 1 en sol mineur
TTITLE4=Polonaise KK IV.a n° 1 en si bémol majeur
TTITLE5=Polonaise KK IV.a n° 2 en la bémol majeur
TTITLE6=Polonaise KK IV.a n° 3 en sol dièse mineur
TTITLE7=Polonaise KK IV.a n° 5 en si bémol mineur
TTITLE8=Polonaise KK IV.a n° 8 en sol bémol mineur
TTITLE9=Bourrée B.160.b n° 1 en sol majeur
TTITLE10=Bourrée B.160.b n° 2 en la majeur
TTITLE11=KK.IV.b n° 12 Moderato en mi majeur « Feuille d'album »
TTITLE12=KK.IV.b n° 5 Largo en mi bémol majeur
TTITLE13=KK.IV.b n° 10 en mi bémol majeur - sostenuto
TTITLE14=KK II.b n° 2 Variation n° 6 sur la marche des « Puritains » d
TTITLE14=e Bellini dans L'Hexaméron
TTITLE15=KK.IV.c n° 2 Fugue en la mineur
TTITLE16=KK.IV.c n° 1 Canon en fa mineur (inachevé)
EXTD=YEAR: 2006
EXTT0=
EXTT1=
EXTT2=
EXTT3=
EXTT4=
EXTT5=
EXTT6=
EXTT7=
EXTT8=
EXTT9=
EXTT10=
EXTT11=
EXTT12=
EXTT13=
EXTT14=
EXTT15=
EXTT16=
PLAYORDER=
